<?xml version="1.0" encoding="utf-8"?>
<!-- Generator: Adobe Illustrator 16.0.0, SVG Export Plug-In . SVG Version: 6.00 Build 0)  -->
<!DOCTYPE svg PUBLIC "-//W3C//DTD SVG 1.1//EN" "http://www.w3.org/Graphics/SVG/1.1/DTD/svg11.dtd">
<svg version="1.1" id="Layer_1" xmlns="http://www.w3.org/2000/svg" xmlns:xlink="http://www.w3.org/1999/xlink" x="0px" y="0px"
	 width="262.656px" height="71.696px" viewBox="68.672 164.152 262.656 71.696"
	 enable-background="new 68.672 164.152 262.656 71.696" xml:space="preserve">
<g>
	<circle opacity="0.55" fill="#1CC0D1" enable-background="new    " cx="295.48" cy="200" r="35.848"/>
	<circle opacity="0.4" fill="#404042" enable-background="new    " cx="234.339" cy="200" r="35.848"/>
	<circle opacity="0.25" fill="#404042" enable-background="new    " cx="170.184" cy="200" r="35.848"/>
	<circle opacity="0.1" fill="#404042" enable-background="new    " cx="104.52" cy="200" r="35.848"/>
	<g>
		<path d="M285.755,216.454c-0.603,0-1.057,0.007-1.51-0.003c-0.233-0.006-0.347-0.035-0.453-0.076c0,0,0.149-0.085,0.396-0.227
			c0.234-0.135,0.487-0.242,0.731-0.364c2.729-1.349,5.468-2.669,8.172-4.062c0.63-0.326,1.165-0.865,1.694-1.356
			c0.412-0.376,0.361-0.847-0.067-1.183c-0.503-0.39-1.034-0.754-1.604-1.035c-0.188-0.092-0.583,0.025-0.779,0.179
			c-5.979,4.667-19.842,12.259-20.171,12.392c0.212-0.271,10.096-10.391,14.814-15.187c0.735-0.747,0.719-0.777-0.064-1.478
			c-0.906-0.81-1.523-1.744-1.368-3.025c0.168-1.385,1.124-2.227,2.472-1.882c1.308,0.335,2.641,0.817,3.775,1.529
			c2.771,1.742,5.199,3.92,7.247,6.491c1.545,1.938,1.504,3.224-0.326,4.927c-0.833,0.773-1.813,1.497-2.856,1.906
			C292.568,215.295,289.175,216.268,285.755,216.454z"/>
		<path d="M283.584,193.315c0.107-2.904,0.379-5.323,2.111-7.339c1.587-1.845,3.518-2.536,5.883-1.969
			c2.242,0.539,4.234,1.554,5.771,3.305c0.49,0.559,0.877,1.25,1.155,1.941c0.312,0.786,0.104,1.584-0.465,2.216
			c-0.545,0.612-1.295,0.548-1.951,0.304c-0.61-0.227-1.188-0.598-1.712-0.998c-0.915-0.706-1.732-1.545-2.666-2.219
			c-1.813-1.306-3.29-1.012-4.632,0.792c-1.437,1.93-1.998,4.22-2.72,6.444c-0.055,0.173-0.069,0.361-0.133,0.532
			c-0.022,0.073-0.113,0.123-0.179,0.183c-0.026-0.083-0.071-0.162-0.083-0.247C283.82,195.145,283.678,194.03,283.584,193.315z"/>
		<path d="M319.217,193.947c-0.544,2.884-1.769,5.605-4.191,7.681c-1.17,1-2.461,1.788-4.012,2.06
			c-1.004,0.174-1.945-0.012-2.799-0.557c-1.986-1.268-3.277-3.063-3.906-5.322c-0.289-1.027-0.25-2.061,0.332-3.002
			c0.683-1.104,1.748-1.265,2.666-0.344c0.396,0.396,0.696,0.924,0.943,1.436c0.318,0.653,0.471,1.392,0.821,2.024
			c0.329,0.598,0.768,1.165,1.26,1.642c0.576,0.554,1.291,0.609,2.026,0.215c2.923-1.563,5.104-3.802,6.348-6.908
			c0.073-0.183,0.188-0.351,0.285-0.524c0.044,0.191,0.102,0.38,0.127,0.574C319.156,193.191,319.173,193.462,319.217,193.947z"/>
		<path d="M305.389,185.282c2.301,0.003,4.172,1.774,4.184,3.96c0.009,2.102-1.896,3.926-4.113,3.943
			c-2.277,0.015-4.152-1.766-4.167-3.964C301.279,187.101,303.169,185.282,305.389,185.282z"/>
	</g>
	<g>
		<path d="M173.677,195.492c1.691,1.745,4.04,2.669,6.358,3.234c2.14,0.614,4.399,0.738,6.612,0.629
			c-1.121-0.5-2.428-0.353-3.537-0.9c-1.842-0.835-3.667-1.771-5.231-3.068c-1.295-1.054-2.296-2.454-2.901-4.008
			c-0.441-0.924-0.786-1.995-1.675-2.596c-0.738-0.532-1.801-0.353-2.46,0.218c-0.547,0.51-0.471,1.339-0.235,1.983
			C171.24,192.715,172.423,194.174,173.677,195.492z"/>
		<path d="M162.866,199.082c-0.118-1.477-0.212-2.995-0.821-4.369c-0.362-0.877-1.133-1.563-2.074-1.736
			c-0.813,0.327-1.527,0.947-1.736,1.83c-0.459,1.862,0.282,3.717,0.621,5.532c0.738,3.8,1.963,7.481,2.769,11.267
			c0.506,1.733,1.039,3.457,1.548,5.19c0.229,0.722,0.412,1.472,0.827,2.115c0.094-0.644,0.056-1.298,0.053-1.94
			C163.767,210.999,163.475,205.025,162.866,199.082z"/>
		<path d="M169.358,194.868c-1.571-1.097-3.525-1.753-5.45-1.479c-0.614,0.518-1.067,1.33-0.936,2.153
			c0.183,0.742,0.839,1.21,1.439,1.616c1.459,0.906,3.128,1.383,4.723,1.992c-1.336,2.75-2.663,5.508-4.058,8.227
			c-0.2,0.383-0.292,0.805-0.351,1.225c0.656-0.238,1.083-0.817,1.568-1.291c1.444-1.561,2.966-3.043,4.408-4.608
			c1.038-1.136,1.918-2.577,1.895-4.16C172.385,196.77,170.735,195.736,169.358,194.868z"/>
		<path d="M156.552,201.795c-1.342-1.177-3.125-1.795-4.905-1.795c-0.497,0-0.995,0.048-1.483,0.147
			c-2.96,0.645-5.543,2.625-7.059,5.229c-2.024,3.153-2.539,7.374-0.941,10.813c0.918,2.033,2.748,3.666,4.92,4.229
			c0.638,0.15,1.291,0.227,1.947,0.227c1.621,0,3.243-0.459,4.605-1.344c2.162-1.216,3.739-3.267,4.805-5.474
			c0.991-2.404,1.415-5.138,0.697-7.677C158.752,204.473,157.823,202.947,156.552,201.795z M157.47,213.395
			c-0.771,1.592-2.154,3.74-4.355,4.979l-0.029,0.019l-0.029,0.018c-1.162,0.757-2.592,1.171-4.025,1.171
			c-0.573,0-1.142-0.063-1.691-0.192c-1.795-0.47-3.408-1.861-4.205-3.633l-0.003-0.006l-0.003-0.006
			c-1.383-2.973-1.039-6.814,0.871-9.792l0.012-0.021l0.012-0.019c1.395-2.394,3.77-4.158,6.358-4.724
			c0.412-0.082,0.839-0.123,1.266-0.123c1.563,0,3.093,0.553,4.198,1.523c1.131,1.026,1.931,2.377,2.258,3.799l0.009,0.023
			l0.006,0.025C158.859,209.066,158.176,211.664,157.47,213.395z"/>
		<path d="M188.877,207.074c-0.388-2.077-1.503-4.037-3.21-5.309c-1.268-0.934-2.845-1.41-4.419-1.41
			c-0.495,0-0.989,0.047-1.472,0.138c-2.463,0.548-4.69,1.994-6.224,3.986c-1.009,1.356-1.9,2.854-2.286,4.518
			c-0.809,2.799-0.55,5.968,0.998,8.473c1.285,2.092,3.643,3.524,6.12,3.524c0.076,0,0.155-0.003,0.232-0.003
			c0.079,0,0.162,0.003,0.244,0.003c2.033,0,3.942-0.915,5.547-2.113C187.854,216.128,189.76,211.438,188.877,207.074z
			 M183.758,218.041c-1.687,1.253-3.334,1.893-4.896,1.893c-0.07,0-0.136,0-0.206-0.006h-0.038h-0.038
			c-0.065,0.006-0.13,0.006-0.194,0.006c-2.042,0-4.087-1.187-5.217-3.021c-1.315-2.128-1.646-4.977-0.88-7.618l0.009-0.026
			l0.006-0.029c0.297-1.276,0.962-2.58,2.098-4.11c1.386-1.801,3.425-3.106,5.591-3.587c0.412-0.079,0.833-0.12,1.257-0.12
			c1.386,0,2.733,0.431,3.783,1.2c1.428,1.064,2.445,2.757,2.799,4.648l0.003,0.01v0.009
			C188.613,211.141,186.977,215.46,183.758,218.041z"/>
		<path d="M179.132,183.54c2.157,0,3.901,1.745,3.901,3.898c0,2.154-1.744,3.899-3.901,3.899c-2.15,0-3.898-1.745-3.898-3.899
			C175.234,185.285,176.982,183.54,179.132,183.54z"/>
	</g>
	<g>
		<path d="M254.665,212.288c-5.323-3.625-10.723-7.136-16.072-10.724c0.354-1.028,0.59-2.209,0.071-3.229
			c-0.735-1.975-3.093-3.084-5.095-2.486c-0.734,0.18-1.307,0.7-1.953,1.041c-0.918-0.503-1.744-1.156-2.633-1.709
			c-3.563-2.378-7.143-4.737-10.696-7.127c0.032-0.791-0.324-1.513-0.681-2.195c-0.974-1.756-2.307-3.324-3.934-4.508
			c-0.77-0.556-1.675-1-2.643-1.003c-1.516,0.312-2.742,1.565-3.188,3.024c-0.234,0.751-0.098,1.598,0.389,2.219
			c1.656,1.945,4.078,3.058,6.529,3.616c0.969,0.301,2.07,0.38,2.978-0.149c1.14,0.759,2.29,1.503,3.413,2.283
			c-0.31,1.936,0.054,3.893,0.358,5.806c0.763,3.187,2.154,6.57,5.082,8.335c1.106,0.076,2.483-0.105,3.043-1.201
			c0.382-0.649,0.082-1.461-0.462-1.908c-2.033-0.887-3.658-2.53-4.869-4.358c-0.859-1.232-1.308-2.68-1.949-4.024
			c-0.354-0.713-0.461-1.504-0.586-2.278c3.047,2.072,6.121,4.1,9.199,6.124c-0.26,0.686-0.533,1.392-0.519,2.136
			c0.047,1.931,1.62,3.696,3.54,3.955c1.469,0.285,2.982-0.354,3.992-1.418c2.957,2.012,5.979,3.932,8.91,5.973
			c-0.595,0.51-1.232,1.175-2.084,1.113c-1.395-0.092-2.39-1.281-3.054-2.398c-0.51-0.854-1.151-1.846-2.229-1.965
			c-0.615-0.191-1.401,0.066-1.574,0.74c-0.45,0.865,0.07,1.815,0.582,2.524c1.095,1.399,2.498,2.692,4.264,3.14
			c0.947,0.303,1.967,0.213,2.913-0.037c1.106-0.4,1.757-1.438,2.524-2.261c1.51,0.988,2.995,2.019,4.52,2.983
			c-14.07-0.045-28.145,0.018-42.218,0.015c0.015,0.386,0.028,0.771,0.047,1.159c15.495-0.021,30.99,0,46.479-0.059
			c-0.012-0.381-0.022-0.76-0.039-1.14C256.236,212.285,255.45,212.307,254.665,212.288z"/>
		<path d="M256.391,220.137c-2.711,0.737-4.968,2.991-7.917,2.84c-3.719-0.369-6.654-3.299-10.434-3.426
			c-3.896-0.178-7.159,2.848-11.068,2.524c-2.223-0.165-3.981-1.748-6.128-2.185c-2.321-0.547-4.717-0.029-6.946,0.656
			c-0.68,0.227-1.396,0.379-2.006,0.773c0.047,0.365,0.119,0.994,0.649,0.848c1.636-0.389,3.228-0.982,4.896-1.26
			c1.125-0.029,2.293-0.164,3.381,0.205c1.875,0.558,3.521,1.736,5.465,2.088c1.104,0.225,2.232,0.044,3.324-0.156
			c2.562-0.5,4.836-1.973,7.442-2.292c2.222-0.187,4.306,0.763,6.234,1.744c1.548,0.735,3.147,1.419,4.858,1.671
			c2.393,0.172,4.571-0.99,6.61-2.091c0.93-0.513,1.928-0.907,2.999-0.972c0.038-0.209,0.076-0.422,0.114-0.631
			C257.646,219.839,256.878,220.068,256.391,220.137z"/>
	</g>
	<g>
		<path d="M95.649,189.802c1.909,2.592,3.822,5.19,5.976,7.592c0.836,0.924,2.16,1.453,3.375,1.015
			c0.889-0.389,1.292-1.583,0.795-2.425c-0.345-0.562-0.824-1.023-1.271-1.506c-1.186-1.159-2.371-2.322-3.619-3.416
			c-3.602-3.264-7.13-6.609-10.734-9.866c-0.265-0.244-0.57-0.427-0.892-0.583c0.159,0.612,0.583,1.106,0.9,1.642
			C91.944,184.812,93.774,187.321,95.649,189.802z"/>
		<path d="M91.217,211.361c3.007-1.602,6.003-3.416,8.233-6.045c0.477-0.604,0.941-1.25,1.153-1.998
			c0.158-1.621-0.9-2.988-1.813-4.213c-1.975-2.486-4.146-5.152-7.304-6.114c-0.803,0.371-1.665,0.874-1.96,1.766
			c-0.199,0.815,0.054,1.68,0.469,2.39c0.785,1.383,1.936,2.519,3.151,3.531c1.032,0.883,2.274,1.471,3.351,2.288
			c-2.374,2.384-4.52,4.978-6.726,7.517c-0.874,1.006-1.942,1.832-2.761,2.89l0.286,0.019
			C88.646,212.801,89.905,212.025,91.217,211.361z"/>
		<path d="M130.511,219.725c-2.637,0.047-4.361,2.532-6.892,2.965c-1.73,0.412-3.357-0.502-4.857-1.229
			c-1.739-0.842-3.578-1.783-5.573-1.609c-3.063,0.188-5.438,2.705-8.533,2.76c-2.242,0.035-3.949-1.768-6.123-2.041
			c-2.213-0.315-4.364,0.523-6.386,1.313c0.009-2.311,0.006-4.617,0.006-6.927c0.041-0.412-0.221-0.906-0.694-0.851
			c-4.387,0.008-8.774,0.002-13.158,0.002v1.115c4.23,0,8.462,0,12.693,0c0.009,2.448-0.015,4.895,0.009,7.342
			c-0.038,0.313,0.227,0.506,0.424,0.703c2.169-0.512,4.196-1.744,6.491-1.627c2.345,0.193,4.166,2.158,6.564,2.096
			c2.06,0.104,3.922-0.916,5.714-1.783c1.507-0.721,3.252-1.292,4.914-0.777c2.295,0.659,4.252,2.213,6.612,2.684
			c1.194,0.172,2.434,0.004,3.539-0.482c1.695-0.641,3.014-2.047,4.8-2.475c0.232-0.066,0.494-0.113,0.639-0.332
			C130.828,220.262,130.619,219.991,130.511,219.725z"/>
		<circle cx="111.153" cy="198.506" r="4.061"/>
	</g>
</g>
</svg>
