<?xml version="1.0" encoding="utf-8"?>
<!-- Generator: Adobe Illustrator 16.0.0, SVG Export Plug-In . SVG Version: 6.00 Build 0)  -->
<!DOCTYPE svg PUBLIC "-//W3C//DTD SVG 1.1//EN" "http://www.w3.org/Graphics/SVG/1.1/DTD/svg11.dtd">
<svg version="1.1" id="Layer_1" xmlns="http://www.w3.org/2000/svg" xmlns:xlink="http://www.w3.org/1999/xlink" x="0px" y="0px"
	 width="540px" height="540px" viewBox="-120 -120 540 540" enable-background="new -120 -120 540 540" xml:space="preserve">
<g>
	<path opacity="0.55" fill="#1CC0D1" d="M420,149.997C420,299.101,299.107,420,149.996,420C0.868,420-120,299.101-120,149.997
		C-120,0.892,0.868-119.999,149.996-119.999C299.107-119.999,420,0.892,420,149.997z"/>
	<g>
		<path fill-rule="evenodd" clip-rule="evenodd" d="M76.752,273.926c-4.537,0-7.957,0.05-11.37-0.023
			c-1.765-0.045-2.611-0.265-3.413-0.573c0,0,1.131-0.64,2.97-1.705c1.773-1.017,3.677-1.818,5.516-2.745
			c20.552-10.149,41.183-20.102,61.549-30.592c4.743-2.456,8.774-6.508,12.76-10.215c3.104-2.831,2.729-6.377-0.505-8.907
			c-3.79-2.928-7.797-5.67-12.08-7.797c-1.419-0.691-4.39,0.199-5.867,1.346c-45.039,35.151-149.445,92.33-151.922,93.322
			c1.595-2.035,76.036-78.251,111.585-114.372c5.539-5.628,5.406-5.856-0.493-11.129c-6.826-6.089-11.474-13.137-10.306-22.778
			c1.265-10.437,8.468-16.778,18.617-14.183c9.843,2.525,19.882,6.158,28.436,11.52c20.882,13.121,39.157,29.522,54.584,48.891
			c11.634,14.607,11.325,24.271-2.457,37.101c-6.275,5.832-13.65,11.28-21.523,14.363
			C128.063,265.193,102.511,272.512,76.752,273.926z"/>
		<path fill-rule="evenodd" clip-rule="evenodd" d="M60.401,99.649c0.817-21.875,2.855-40.093,15.911-55.274
			c11.946-13.895,26.485-19.101,44.3-14.827c16.888,4.06,31.892,11.702,43.463,24.889c3.698,4.207,6.605,9.413,8.706,14.623
			c2.347,5.919,0.796,11.93-3.5,16.689c-4.106,4.609-9.753,4.125-14.698,2.287c-4.603-1.705-8.948-4.502-12.89-7.517
			c-6.894-5.317-13.056-11.637-20.081-16.71c-13.651-9.835-24.78-7.622-34.887,5.963c-10.812,14.534-15.047,31.783-20.477,48.538
			c-0.419,1.302-0.529,2.721-1,4.007c-0.175,0.553-0.859,0.928-1.346,1.378c-0.199-0.626-0.537-1.223-0.626-1.862
			C62.174,113.434,61.108,105.034,60.401,99.649z"/>
		<path fill-rule="evenodd" clip-rule="evenodd" d="M328.781,104.408c-4.097,21.72-13.321,42.22-31.576,57.849
			c-8.806,7.532-18.538,13.468-30.209,15.513c-7.564,1.302-14.651-0.089-21.079-4.193c-14.96-9.546-24.688-23.066-29.429-40.085
			c-2.179-7.737-1.886-15.518,2.499-22.608c5.144-8.313,13.164-9.526,20.078-2.591c2.996,2.986,5.254,6.959,7.114,10.812
			c2.398,4.921,3.546,10.482,6.186,15.249c2.488,4.5,5.783,8.774,9.486,12.362c4.343,4.172,9.728,4.592,15.27,1.619
			c22.012-11.768,38.449-28.632,47.805-52.029c0.55-1.378,1.42-2.643,2.147-3.953c0.33,1.443,0.755,2.863,0.954,4.327
			C328.316,98.717,328.447,100.754,328.781,104.408z"/>
		<path fill-rule="evenodd" clip-rule="evenodd" d="M224.624,39.145c17.328,0.023,31.419,13.365,31.508,29.827
			c0.068,15.828-14.269,29.567-30.979,29.701c-17.154,0.11-31.277-13.3-31.387-29.855C193.676,52.84,207.908,39.145,224.624,39.145z
			"/>
	</g>
</g>
</svg>
