<?xml version="1.0" encoding="utf-8"?>
<!-- Generator: Adobe Illustrator 16.0.0, SVG Export Plug-In . SVG Version: 6.00 Build 0)  -->
<!DOCTYPE svg PUBLIC "-//W3C//DTD SVG 1.1//EN" "http://www.w3.org/Graphics/SVG/1.1/DTD/svg11.dtd">
<svg version="1.1" id="Layer_1" xmlns="http://www.w3.org/2000/svg" xmlns:xlink="http://www.w3.org/1999/xlink" x="0px" y="0px"
	 width="400px" height="400px" viewBox="-50 -50 400 400" enable-background="new -50 -50 400 400" xml:space="preserve">
<g>
	<circle opacity="0.55" fill="#1CC0D1" cx="245.48" cy="111.855" r="35.848"/>
	<circle opacity="0.4" fill="#404042" cx="184.339" cy="111.855" r="35.848"/>
	<circle opacity="0.25" fill="#404042" cx="120.184" cy="111.855" r="35.848"/>
	<circle opacity="0.1" fill="#404042" cx="54.52" cy="111.855" r="35.848"/>
	<g>
		<path fill-rule="evenodd" clip-rule="evenodd" d="M235.755,128.309c-0.603,0-1.057,0.007-1.51-0.003
			c-0.234-0.006-0.347-0.035-0.453-0.076c0,0,0.15-0.085,0.395-0.227c0.235-0.135,0.488-0.241,0.732-0.364
			c2.729-1.348,5.468-2.669,8.172-4.062c0.63-0.326,1.165-0.864,1.694-1.356c0.412-0.376,0.362-0.847-0.067-1.183
			c-0.503-0.389-1.035-0.753-1.604-1.035c-0.188-0.092-0.583,0.026-0.779,0.179c-5.979,4.667-19.842,12.259-20.171,12.391
			c0.212-0.271,10.096-10.39,14.815-15.186c0.735-0.747,0.718-0.777-0.065-1.478c-0.906-0.809-1.523-1.744-1.368-3.024
			c0.168-1.386,1.124-2.228,2.472-1.883c1.307,0.335,2.64,0.817,3.775,1.529c2.772,1.742,5.199,3.92,7.247,6.491
			c1.545,1.939,1.504,3.223-0.326,4.926c-0.833,0.774-1.813,1.498-2.857,1.907C242.568,127.15,239.175,128.122,235.755,128.309z"/>
		<path fill-rule="evenodd" clip-rule="evenodd" d="M233.584,105.17c0.108-2.904,0.379-5.323,2.112-7.339
			c1.586-1.845,3.517-2.536,5.882-1.969c2.242,0.539,4.234,1.554,5.771,3.305c0.491,0.559,0.877,1.25,1.156,1.941
			c0.312,0.786,0.105,1.584-0.465,2.216c-0.545,0.612-1.295,0.548-1.951,0.304c-0.611-0.227-1.188-0.598-1.712-0.998
			c-0.915-0.706-1.733-1.545-2.666-2.219c-1.813-1.306-3.29-1.012-4.632,0.792c-1.436,1.93-1.998,4.22-2.719,6.444
			c-0.056,0.173-0.07,0.361-0.133,0.532c-0.023,0.073-0.114,0.123-0.179,0.183c-0.026-0.083-0.071-0.162-0.083-0.247
			C233.82,107,233.678,105.885,233.584,105.17z"/>
		<path fill-rule="evenodd" clip-rule="evenodd" d="M269.217,105.802c-0.544,2.884-1.769,5.605-4.192,7.681
			c-1.169,1-2.461,1.788-4.011,2.06c-1.004,0.173-1.945-0.012-2.799-0.557c-1.986-1.268-3.277-3.063-3.907-5.322
			c-0.289-1.027-0.25-2.061,0.332-3.002c0.683-1.104,1.748-1.265,2.666-0.344c0.397,0.396,0.697,0.924,0.944,1.436
			c0.318,0.653,0.471,1.392,0.821,2.024c0.33,0.598,0.768,1.165,1.26,1.642c0.576,0.554,1.291,0.609,2.027,0.215
			c2.922-1.563,5.104-3.802,6.347-6.908c0.073-0.183,0.188-0.351,0.285-0.524c0.044,0.191,0.101,0.38,0.127,0.574
			C269.156,105.046,269.173,105.317,269.217,105.802z"/>
		<path fill-rule="evenodd" clip-rule="evenodd" d="M255.388,97.137c2.301,0.003,4.172,1.774,4.184,3.96
			c0.009,2.102-1.895,3.926-4.113,3.943c-2.277,0.015-4.152-1.766-4.167-3.964C251.28,98.956,253.169,97.137,255.388,97.137z"/>
	</g>
	<g>
		<path d="M123.677,107.347c1.691,1.745,4.04,2.669,6.358,3.234c2.14,0.614,4.399,0.738,6.612,0.629
			c-1.121-0.5-2.428-0.353-3.537-0.9c-1.842-0.835-3.667-1.771-5.231-3.068c-1.295-1.054-2.296-2.454-2.901-4.008
			c-0.441-0.924-0.786-1.995-1.675-2.596c-0.738-0.532-1.801-0.353-2.46,0.218c-0.547,0.51-0.471,1.339-0.235,1.983
			C121.24,104.57,122.423,106.029,123.677,107.347z"/>
		<path d="M112.866,110.937c-0.118-1.477-0.212-2.995-0.821-4.369c-0.362-0.877-1.133-1.563-2.074-1.736
			c-0.813,0.327-1.527,0.947-1.736,1.83c-0.459,1.862,0.282,3.717,0.621,5.532c0.738,3.799,1.963,7.482,2.769,11.267
			c0.506,1.733,1.039,3.457,1.548,5.19c0.229,0.721,0.412,1.472,0.827,2.115c0.094-0.644,0.056-1.297,0.053-1.941
			C113.767,122.854,113.475,116.881,112.866,110.937z"/>
		<path d="M119.358,106.723c-1.571-1.097-3.525-1.753-5.45-1.479c-0.614,0.518-1.067,1.33-0.936,2.153
			c0.183,0.742,0.839,1.21,1.439,1.616c1.459,0.906,3.128,1.383,4.723,1.992c-1.336,2.751-2.663,5.508-4.058,8.227
			c-0.2,0.383-0.292,0.804-0.351,1.225c0.656-0.238,1.083-0.818,1.568-1.292c1.444-1.56,2.966-3.043,4.408-4.608
			c1.038-1.136,1.918-2.577,1.895-4.16C122.385,108.625,120.735,107.591,119.358,106.723z"/>
		<path d="M106.552,113.65c-1.342-1.177-3.125-1.795-4.905-1.795c-0.497,0-0.995,0.048-1.483,0.147
			c-2.96,0.645-5.543,2.625-7.059,5.229c-2.024,3.154-2.539,7.374-0.941,10.813c0.918,2.033,2.748,3.667,4.92,4.229
			c0.638,0.15,1.291,0.227,1.947,0.227c1.621,0,3.243-0.459,4.605-1.345c2.162-1.215,3.739-3.266,4.805-5.473
			c0.991-2.404,1.415-5.138,0.697-7.677C108.752,116.328,107.823,114.803,106.552,113.65z M107.47,125.25
			c-0.771,1.592-2.154,3.74-4.355,4.979l-0.029,0.018l-0.029,0.018c-1.162,0.757-2.592,1.171-4.025,1.171
			c-0.573,0-1.142-0.064-1.691-0.193c-1.795-0.469-3.408-1.86-4.205-3.632l-0.003-0.006l-0.003-0.006
			c-1.383-2.972-1.039-6.814,0.871-9.792l0.012-0.021l0.012-0.018c1.395-2.393,3.77-4.158,6.358-4.723
			c0.412-0.083,0.839-0.124,1.266-0.124c1.563,0,3.093,0.553,4.198,1.524c1.131,1.026,1.931,2.377,2.258,3.799l0.009,0.023
			l0.006,0.026C108.859,120.921,108.176,123.519,107.47,125.25z"/>
		<path d="M138.877,118.929c-0.388-2.077-1.503-4.037-3.21-5.309c-1.268-0.933-2.845-1.409-4.419-1.409
			c-0.495,0-0.989,0.047-1.472,0.138c-2.463,0.548-4.69,1.995-6.224,3.987c-1.009,1.356-1.9,2.854-2.286,4.517
			c-0.809,2.799-0.55,5.968,0.998,8.472c1.285,2.092,3.643,3.525,6.12,3.525c0.076,0,0.155-0.003,0.232-0.003
			c0.079,0,0.162,0.003,0.244,0.003c2.033,0,3.942-0.915,5.547-2.113C137.854,127.983,139.76,123.292,138.877,118.929z
			 M133.758,129.896c-1.687,1.253-3.334,1.892-4.896,1.892c-0.07,0-0.136,0-0.206-0.006h-0.038h-0.038
			c-0.065,0.006-0.13,0.006-0.194,0.006c-2.042,0-4.087-1.186-5.217-3.021c-1.315-2.128-1.646-4.977-0.88-7.618l0.009-0.026
			l0.006-0.03c0.297-1.276,0.962-2.58,2.098-4.11c1.386-1.801,3.425-3.107,5.591-3.587c0.412-0.079,0.833-0.12,1.257-0.12
			c1.386,0,2.733,0.43,3.783,1.2c1.428,1.065,2.445,2.757,2.799,4.649l0.003,0.009v0.009
			C138.613,122.996,136.977,127.315,133.758,129.896z"/>
		<path d="M129.132,95.395c2.157,0,3.901,1.745,3.901,3.898c0,2.154-1.744,3.899-3.901,3.899c-2.15,0-3.898-1.745-3.898-3.899
			C125.234,97.14,126.982,95.395,129.132,95.395z"/>
	</g>
	<g>
		<path d="M204.665,124.143c-5.323-3.625-10.723-7.136-16.072-10.723c0.354-1.029,0.589-2.21,0.071-3.23
			c-0.735-1.975-3.093-3.084-5.094-2.486c-0.735,0.18-1.307,0.7-1.954,1.041c-0.918-0.503-1.744-1.156-2.633-1.709
			c-3.563-2.378-7.142-4.737-10.696-7.127c0.032-0.791-0.324-1.513-0.68-2.195c-0.974-1.756-2.307-3.324-3.934-4.508
			c-0.769-0.556-1.675-1-2.643-1.003c-1.516,0.312-2.742,1.565-3.187,3.024c-0.235,0.751-0.098,1.598,0.389,2.219
			c1.656,1.945,4.078,3.058,6.529,3.616c0.968,0.301,2.07,0.38,2.977-0.149c1.14,0.759,2.29,1.503,3.414,2.283
			c-0.31,1.936,0.053,3.893,0.358,5.806c0.763,3.187,2.154,6.57,5.082,8.336c1.106,0.076,2.483-0.106,3.043-1.201
			c0.382-0.65,0.082-1.462-0.462-1.909c-2.034-0.886-3.658-2.53-4.87-4.358c-0.859-1.232-1.307-2.68-1.948-4.024
			c-0.354-0.713-0.462-1.504-0.586-2.278c3.046,2.072,6.121,4.1,9.199,6.124c-0.26,0.686-0.533,1.392-0.519,2.136
			c0.047,1.931,1.621,3.696,3.54,3.955c1.469,0.285,2.983-0.354,3.993-1.419c2.957,2.013,5.979,3.932,8.909,5.974
			c-0.594,0.509-1.232,1.174-2.083,1.112c-1.395-0.091-2.39-1.28-3.054-2.398c-0.51-0.853-1.151-1.845-2.23-1.965
			c-0.615-0.191-1.401,0.067-1.574,0.741c-0.45,0.865,0.07,1.815,0.582,2.524c1.095,1.4,2.498,2.692,4.264,3.14
			c0.947,0.303,1.966,0.212,2.913-0.038c1.106-0.4,1.757-1.437,2.524-2.26c1.51,0.988,2.996,2.019,4.52,2.983
			c-14.07-0.044-28.145,0.018-42.218,0.015c0.015,0.386,0.029,0.771,0.047,1.159c15.495-0.021,30.99,0,46.479-0.059
			c-0.012-0.38-0.023-0.759-0.039-1.139C206.237,124.14,205.45,124.161,204.665,124.143z"/>
		<path d="M206.39,131.991c-2.711,0.738-4.967,2.992-7.916,2.84c-3.719-0.368-6.655-3.299-10.434-3.426
			c-3.896-0.177-7.159,2.849-11.069,2.525c-2.222-0.165-3.981-1.748-6.127-2.184c-2.321-0.548-4.717-0.029-6.946,0.656
			c-0.68,0.227-1.397,0.379-2.007,0.773c0.047,0.365,0.12,0.995,0.65,0.848c1.636-0.389,3.228-0.982,4.896-1.26
			c1.124-0.029,2.292-0.164,3.381,0.206c1.875,0.557,3.52,1.736,5.464,2.087c1.104,0.224,2.233,0.044,3.325-0.156
			c2.561-0.5,4.835-1.972,7.442-2.292c2.222-0.186,4.305,0.762,6.234,1.744c1.548,0.736,3.148,1.419,4.858,1.672
			c2.393,0.171,4.572-0.992,6.611-2.092c0.93-0.513,1.928-0.907,2.999-0.972c0.038-0.209,0.076-0.421,0.114-0.63
			C207.646,131.694,206.878,131.923,206.39,131.991z"/>
	</g>
	<g>
		<path d="M45.649,101.657c1.909,2.592,3.822,5.19,5.976,7.592c0.836,0.924,2.16,1.453,3.375,1.015
			c0.889-0.389,1.292-1.583,0.795-2.425c-0.345-0.562-0.824-1.023-1.271-1.506c-1.186-1.159-2.371-2.322-3.619-3.416
			c-3.602-3.264-7.13-6.609-10.734-9.866c-0.265-0.244-0.57-0.427-0.892-0.583c0.159,0.612,0.583,1.106,0.9,1.642
			C41.944,96.667,43.774,99.176,45.649,101.657z"/>
		<path d="M41.217,123.216c3.007-1.601,6.003-3.416,8.233-6.044c0.477-0.604,0.941-1.251,1.153-1.998
			c0.158-1.621-0.9-2.989-1.813-4.214c-1.975-2.486-4.146-5.152-7.304-6.114c-0.803,0.371-1.665,0.874-1.96,1.766
			c-0.199,0.815,0.054,1.68,0.469,2.39c0.785,1.383,1.936,2.519,3.151,3.53c1.032,0.883,2.274,1.472,3.351,2.289
			c-2.374,2.384-4.52,4.977-6.726,7.516c-0.874,1.006-1.942,1.833-2.761,2.89l0.286,0.018
			C38.646,124.655,39.905,123.881,41.217,123.216z"/>
		<path d="M80.511,131.579c-2.637,0.047-4.361,2.533-6.892,2.966c-1.73,0.412-3.357-0.503-4.857-1.229
			c-1.739-0.842-3.578-1.783-5.573-1.609c-3.063,0.188-5.438,2.704-8.533,2.76c-2.242,0.035-3.949-1.769-6.123-2.042
			c-2.213-0.315-4.364,0.523-6.386,1.313c0.009-2.311,0.006-4.617,0.006-6.927c0.041-0.412-0.221-0.906-0.694-0.851
			c-4.387,0.009-8.774,0.003-13.158,0.003v1.115c4.23,0,8.462,0,12.693,0c0.009,2.448-0.015,4.894,0.009,7.342
			c-0.038,0.312,0.227,0.506,0.424,0.703c2.169-0.512,4.196-1.745,6.491-1.627c2.345,0.193,4.166,2.159,6.564,2.095
			c2.06,0.105,3.922-0.915,5.714-1.783c1.507-0.721,3.252-1.292,4.914-0.777c2.295,0.659,4.252,2.213,6.612,2.684
			c1.194,0.171,2.434,0.003,3.539-0.482c1.695-0.642,3.014-2.048,4.8-2.475c0.232-0.067,0.494-0.114,0.639-0.332
			C80.828,132.117,80.619,131.846,80.511,131.579z"/>
		<circle cx="61.153" cy="110.361" r="4.061"/>
	</g>
	<g>
		<path fill="#404042" d="M18.672,223.23l1.724-66.514h6.136l13.241,57.725l13.32-57.725h6.3l1.645,66.514h-5.217l-1.283-53.037
			L41.821,223.23h-4.014l-12.556-52.914l-1.286,52.914H18.672z"/>
		<path fill="#404042" d="M88.758,222.83c-1.659,0.773-3.704,1.162-6.138,1.162c-2.437,0-4.481-0.389-6.141-1.162
			c-1.657-0.775-2.96-1.957-3.911-3.531c-0.95-1.576-1.624-3.43-2.024-5.555c-0.399-2.127-0.6-4.688-0.6-7.684v-13.158
			c0-6.043,0.936-10.537,2.804-13.479c1.875-2.943,5.164-4.418,9.872-4.418c4.731,0,8.027,1.469,9.887,4.396s2.787,7.43,2.787,13.5
			v13.158c0,2.996-0.197,5.557-0.601,7.684c-0.4,2.125-1.077,3.979-2.027,5.555C91.719,220.873,90.415,222.055,88.758,222.83z
			 M82.62,219.459c1.204,0,2.219-0.219,3.049-0.66c0.826-0.443,1.477-0.996,1.944-1.668c0.468-0.664,0.821-1.619,1.065-2.846
			c0.238-1.229,0.395-2.406,0.459-3.531c0.067-1.123,0.101-2.58,0.101-4.371v-13.805c0-1.789-0.033-3.248-0.101-4.369
			c-0.064-1.123-0.221-2.301-0.459-3.531c-0.244-1.229-0.598-2.18-1.065-2.848s-1.118-1.221-1.944-1.666
			c-0.83-0.441-1.845-0.662-3.049-0.662c-1.018,0-1.9,0.133-2.648,0.404c-0.75,0.264-1.365,0.703-1.848,1.303
			c-0.479,0.602-0.868,1.242-1.159,1.924c-0.3,0.684-0.518,1.572-0.665,2.666c-0.147,1.098-0.238,2.135-0.279,3.111
			c-0.038,0.977-0.062,2.201-0.062,3.668v13.805c0,1.471,0.023,2.695,0.062,3.668c0.041,0.977,0.132,2.014,0.279,3.111
			s0.365,1.986,0.665,2.666c0.291,0.682,0.68,1.326,1.159,1.926c0.482,0.602,1.098,1.039,1.848,1.305
			C80.72,219.326,81.603,219.459,82.62,219.459z"/>
		<path fill="#404042" d="M110.78,223.23l-10.352-47.5h6.098l7.747,40.559l7.621-40.559h5.855l-9.866,47.5H110.78z"/>
		<path fill="#404042" d="M153.537,223.23v-66.514h6.176v66.514H153.537z"/>
		<path fill="#404042" d="M170.265,223.23v-47.5h6.017v4.934c3.502-3.768,7.31-5.658,11.435-5.658c2.354,0,4.158,0.881,5.415,2.631
			c1.259,1.752,1.886,4.246,1.886,7.48v38.113h-6.018v-36.828c0-2.406-0.367-4.119-1.104-5.135c-0.735-1.014-1.88-1.523-3.428-1.523
			c-2.598,0-5.326,1.457-8.187,4.373v39.113H170.265z"/>
		<path fill="#404042" d="M214.473,223.992c-4.091,0-7.027-1.541-8.805-4.613c-1.78-3.074-2.671-8.184-2.671-15.324v-8.787
			c0-2.621,0.097-4.92,0.282-6.898c0.188-1.979,0.535-3.838,1.044-5.576c0.507-1.74,1.178-3.158,2.004-4.252
			c0.83-1.098,1.901-1.963,3.214-2.59c1.306-0.627,2.859-0.945,4.651-0.945c3.131,0.029,5.927,1.408,8.384,4.135v-22.424h6.02
			v66.514h-6.02v-3.369C220.172,222.59,217.468,223.967,214.473,223.992z M215.679,219.221c2.324,0,4.625-1.045,6.897-3.131v-32.977
			c-2.404-2.252-4.761-3.369-7.063-3.369c-2.536,0-4.255,1.063-5.152,3.186c-0.897,2.131-1.342,5.6-1.342,10.414v11.191
			c0,5.189,0.453,8.932,1.362,11.234C211.288,218.07,213.054,219.221,215.679,219.221z"/>
		<path fill="#404042" d="M252.645,223.23l11.234-24.832l-10.713-22.668h5.979l8.146,17.408l7.779-17.408h6.059l-11.11,23.348
			l11.311,24.152h-5.735l-8.865-18.695l-8.266,18.695H252.645z"/>
		<g>
			<path fill="#1CC0D1" d="M235.394,223.992c4.387,0,7.544-1.24,9.469-3.73c1.924-2.486,2.89-6.031,2.89-10.631v-2.652h-5.897v3.293
				c0,3.479-0.562,5.879-1.686,7.203c-1.121,1.324-2.725,1.984-4.816,1.984c-0.06,0-0.115-0.006-0.177-0.01v4.535
				C235.252,223.984,235.32,223.992,235.394,223.992z"/>
			<path fill="#1CC0D1" d="M235.394,179.502c1.124,0,2.089,0.189,2.889,0.566c0.807,0.369,1.434,0.865,1.887,1.479
				c0.456,0.615,0.809,1.463,1.063,2.549c0.253,1.082,0.424,2.172,0.5,3.27c0.082,1.098,0.123,2.475,0.123,4.131v3.934h-6.679v3.449
				h12.576l0.041-4.293c0-2.811-0.109-5.209-0.321-7.201c-0.218-1.992-0.597-3.811-1.145-5.457c-0.547-1.643-1.291-2.943-2.225-3.91
				c-0.938-0.963-2.112-1.707-3.53-2.223c-1.419-0.523-3.128-0.789-5.135-0.789c-0.095,0-0.171,0.016-0.262,0.016v4.49
				C235.249,179.512,235.32,179.502,235.394,179.502z"/>
		</g>
		<path fill="#1CC0D1" d="M140.331,216.41c-0.953-2.037-1.427-5.512-1.427-10.434v-7.102h6.6v-3.447h-6.6v-3.211
			c0-4.951,0.5-8.303,1.506-10.068c0.975-1.713,2.675-2.586,5.094-2.641v-4.486c-2.896,0.029-5.243,0.568-7.021,1.631
			c-1.833,1.096-3.223,3.004-4.176,5.717c-0.947,2.713-1.421,6.385-1.421,11.008v11.998c0,6.795,1.003,11.594,3.01,14.4
			c1.972,2.764,5.179,4.158,9.607,4.205v-4.533C142.986,219.4,141.255,218.393,140.331,216.41z"/>
	</g>
</g>
</svg>
